<svg width="1280" height="2642" viewBox="0 0 1280 2642" fill="none" xmlns="http://www.w3.org/2000/svg">
<g clip-path="url(#clip0_901_1510)">
<rect width="1280" height="2642" rx="210" fill="black"/>
<rect x="11.5" y="11.5" width="1257" height="2619" rx="198.5" stroke="#3C404A" stroke-width="13"/>
<rect x="2.5" y="2.5" width="1275" height="2637" rx="207.5" stroke="#282D36" stroke-width="5"/>
<g opacity="0.9" filter="url(#filter0_f_901_1510)">
<rect x="5" y="6" width="1270" height="2631" rx="206" stroke="#696D75" stroke-width="5"/>
</g>
<g opacity="0.8" filter="url(#filter1_f_901_1510)">
<rect x="22" y="22" width="1236" height="2598" rx="188" stroke="#5B5959" stroke-width="2"/>
</g>
<rect x="55" y="55" width="1170" height="2532" rx="165" fill="white"/>
<path d="M464.656 616.055C434.375 616.055 414.32 599.453 407.016 582.586C405.156 578.867 404.359 575.945 404.359 573.023C404.359 568.242 407.547 565.188 412.461 565.188C416.578 565.188 419.102 567.18 422.289 573.422C430.523 590.289 443.406 600.117 464.789 600.117C499.32 600.117 518.578 568.773 519.773 516.18C519.773 514.32 519.773 512.195 519.773 510.203H519.375C512.07 531.719 489.227 546.859 462.93 546.859C426.406 546.859 399.312 519.898 399.312 483.906C399.312 446.055 427.336 418.297 465.852 418.297C491.75 418.297 512.734 431.445 524.422 454.555C533.055 469.562 537.305 488.953 537.305 513.125C537.305 577.273 510.344 616.055 464.656 616.055ZM465.852 530.789C493.344 530.789 514.727 510.07 514.727 484.305C514.727 456.547 493.609 434.633 465.984 434.633C438.758 434.633 417.641 456.016 417.641 483.375C417.641 510.203 437.828 530.789 465.852 530.789ZM583.258 479.922C576.352 479.922 570.773 474.477 570.773 467.57C570.773 460.664 576.352 455.086 583.258 455.086C590.164 455.086 595.609 460.664 595.609 467.57C595.609 474.477 590.164 479.922 583.258 479.922ZM583.258 579.93C576.352 579.93 570.773 574.484 570.773 567.445C570.773 560.539 576.352 555.094 583.258 555.094C590.164 555.094 595.609 560.539 595.609 567.445C595.609 574.484 590.164 579.93 583.258 579.93ZM733.203 615.258C728.023 615.258 724.305 611.406 724.305 605.828V569.703H637.312C630.805 569.703 626.688 565.586 626.688 559.211C626.688 554.562 627.75 551.375 631.07 545.531C649.93 514.719 677.688 474.609 706.773 433.836C714.609 422.547 719.391 419.094 727.227 419.094C736.789 419.094 741.969 424.008 741.969 433.305V553.633H763.086C768 553.633 771.586 556.688 771.586 561.602C771.586 566.516 768 569.703 763.086 569.703H741.969V605.828C741.969 611.406 738.25 615.258 733.203 615.258ZM724.305 553.633V437.555H724.039C689.375 485.766 664.539 521.625 645.281 553.102V553.633H724.305ZM850.078 615.258C844.898 615.258 841.312 611.406 841.312 605.828V441.273H840.914L800.273 468.5C798.281 469.961 796.422 470.625 794.164 470.625C789.781 470.625 786.859 467.57 786.859 463.055C786.859 459.734 788.055 457.609 791.906 454.82L837.328 423.875C842.641 420.023 845.031 419.094 849.148 419.094C855.125 419.094 858.844 422.812 858.844 429.055V605.828C858.844 611.406 855.258 615.258 850.078 615.258Z" fill="white"/>
<path d="M399.219 360.75C390.75 360.75 384.719 356.938 383.031 351.5C382.844 350.875 382.719 350.188 382.719 349.531C382.719 347.75 383.719 346.625 385.312 346.625C386.719 346.625 387.594 347.344 388.031 348.844C389.406 353.5 393.844 355.688 399.531 355.688C405.656 355.688 410.094 352.469 410.094 348.031C410.094 344.25 407.594 341.75 401.344 340.375L396.344 339.281C387.312 337.312 383.406 333.219 383.406 326.812C383.406 319.375 389.969 314.156 399.312 314.156C406.844 314.156 412.906 317.938 414.531 324.031C414.625 324.375 414.688 324.844 414.688 325.438C414.688 326.969 413.625 327.969 412.125 327.969C410.688 327.969 409.812 327.219 409.312 325.781C407.75 321.219 404.031 319.219 399.156 319.219C393.531 319.219 389.188 321.969 389.188 326.562C389.188 330.125 391.594 332.562 397.75 333.906L402.75 335C412.156 337.062 415.875 340.812 415.875 347.188C415.875 355.531 409.312 360.75 399.219 360.75ZM432.688 360.562C425.594 360.562 421.438 355.969 421.438 348.594V329.844C421.438 328.125 422.562 326.938 424.156 326.938C425.75 326.938 426.875 328.125 426.875 329.844V347.625C426.875 352.906 429.344 355.75 434.375 355.75C439.656 355.75 442.844 352.125 442.844 346.594V329.844C442.844 328.125 443.969 326.938 445.562 326.938C447.156 326.938 448.281 328.125 448.281 329.844V357.812C448.281 359.375 447.281 360.562 445.719 360.562C444.156 360.562 443.125 359.375 443.125 357.812V354.719H443C441.062 358.469 437.688 360.562 432.688 360.562ZM458.062 360.562C456.469 360.562 455.344 359.375 455.344 357.656V329.688C455.344 328.062 456.406 326.938 457.906 326.938C459.406 326.938 460.469 328.062 460.469 329.688V332.688H460.594C462.406 329.188 465.875 326.938 470.906 326.938C478.031 326.938 482.156 331.531 482.156 338.906V357.656C482.156 359.375 481.031 360.562 479.438 360.562C477.844 360.562 476.719 359.375 476.719 357.656V339.875C476.719 334.625 474.25 331.75 469.25 331.75C464.125 331.75 460.781 335.375 460.781 340.875V357.656C460.781 359.375 459.656 360.562 458.062 360.562ZM501.406 360.562C493.125 360.562 487.5 353.938 487.5 343.75C487.5 333.562 493.094 326.938 501.281 326.938C505.938 326.938 509.688 329.219 511.625 332.781H511.75V317.25C511.75 315.531 512.875 314.344 514.469 314.344C516.062 314.344 517.188 315.531 517.188 317.25V357.906C517.188 359.469 516.094 360.562 514.531 360.562C513 360.562 511.75 359.5 511.75 357.906V354.188H511.656C509.875 358.062 506.5 360.562 501.406 360.562ZM502.438 355.781C508.031 355.781 511.781 351.031 511.781 343.75C511.781 336.5 508.031 331.719 502.438 331.719C496.688 331.719 493.062 336.406 493.062 343.75C493.062 351.125 496.688 355.781 502.438 355.781ZM534 360.562C527.531 360.562 523.188 356.656 523.188 350.812C523.188 345.25 527.469 341.75 534.969 341.312L544.312 340.781V338.062C544.312 334.094 541.688 331.719 537.188 331.719C533.656 331.719 531.25 333 529.438 336.219C528.938 337.125 528.219 337.531 527.188 337.531C525.781 337.531 524.781 336.562 524.781 335.094C524.781 334.406 525 333.625 525.438 332.844C527.281 329.281 532.031 326.938 537.312 326.938C544.938 326.938 549.75 331.062 549.75 337.531V357.812C549.75 359.438 548.688 360.562 547.188 360.562C545.656 360.562 544.594 359.438 544.594 357.812V354.406H544.469C542.531 358.125 538.375 360.562 534 360.562ZM535.219 355.938C540.344 355.938 544.312 352.344 544.312 347.656V345L535.594 345.531C531.219 345.812 528.719 347.75 528.719 350.812C528.719 353.906 531.312 355.938 535.219 355.938ZM559.844 372.156C557.219 372.156 555.75 371.188 555.75 369.469C555.75 368.281 556.562 367.469 557.938 367.469C558.719 367.469 558.938 367.5 559.781 367.5C561.844 367.5 563.812 366.25 565.094 362.312L565.844 360.031L554.656 330.875C554.469 330.344 554.375 329.844 554.375 329.438C554.375 327.938 555.531 326.938 557.094 326.938C558.375 326.938 559.188 327.5 559.688 328.938L568.656 354.562H568.75L577.75 328.938C578.25 327.5 578.969 326.938 580.312 326.938C581.875 326.938 582.969 327.969 582.969 329.438C582.969 329.844 582.875 330.344 582.688 330.875L570.688 362.281C567.875 369.75 565.219 372.156 559.844 372.156ZM587.594 352.75C589.188 352.75 590.312 353.688 590.312 355.219C590.312 355.781 590.25 356.25 590.062 356.938L587.188 367.688C586.844 369.031 586.125 369.656 584.812 369.656C583.562 369.656 582.594 368.938 582.594 367.688C582.594 367.219 582.656 366.906 582.688 366.719L584.906 355.125C585.25 353.406 586.125 352.75 587.594 352.75ZM619.875 360.75C614.062 360.75 609.375 357.75 607.719 353C607.375 352 607.156 351.188 607.156 350.031C607.156 348.219 608.156 347.156 609.812 347.156C611.25 347.156 612.125 347.938 612.594 349.688C613.625 353.469 616.219 355.562 619.844 355.562C624.812 355.562 627.5 352.594 627.5 347.094V317.375C627.5 315.594 628.594 314.469 630.312 314.469C632.031 314.469 633.125 315.594 633.125 317.375V347.125C633.125 355.688 628.188 360.75 619.875 360.75ZM650.5 360.562C644.031 360.562 639.688 356.656 639.688 350.812C639.688 345.25 643.969 341.75 651.469 341.312L660.812 340.781V338.062C660.812 334.094 658.188 331.719 653.688 331.719C650.156 331.719 647.75 333 645.938 336.219C645.438 337.125 644.719 337.531 643.688 337.531C642.281 337.531 641.281 336.562 641.281 335.094C641.281 334.406 641.5 333.625 641.938 332.844C643.781 329.281 648.531 326.938 653.812 326.938C661.438 326.938 666.25 331.062 666.25 337.531V357.812C666.25 359.438 665.188 360.562 663.688 360.562C662.156 360.562 661.094 359.438 661.094 357.812V354.406H660.969C659.031 358.125 654.875 360.562 650.5 360.562ZM651.719 355.938C656.844 355.938 660.812 352.344 660.812 347.656V345L652.094 345.531C647.719 345.812 645.219 347.75 645.219 350.812C645.219 353.906 647.812 355.938 651.719 355.938ZM675.875 360.562C674.281 360.562 673.156 359.375 673.156 357.656V329.688C673.156 328.062 674.219 326.938 675.719 326.938C677.219 326.938 678.281 328.062 678.281 329.688V332.688H678.406C680.219 329.188 683.688 326.938 688.719 326.938C695.844 326.938 699.969 331.531 699.969 338.906V357.656C699.969 359.375 698.844 360.562 697.25 360.562C695.656 360.562 694.531 359.375 694.531 357.656V339.875C694.531 334.625 692.062 331.75 687.062 331.75C681.938 331.75 678.594 335.375 678.594 340.875V357.656C678.594 359.375 677.469 360.562 675.875 360.562ZM718 360.562C710.906 360.562 706.75 355.969 706.75 348.594V329.844C706.75 328.125 707.875 326.938 709.469 326.938C711.062 326.938 712.188 328.125 712.188 329.844V347.625C712.188 352.906 714.656 355.75 719.688 355.75C724.969 355.75 728.156 352.125 728.156 346.594V329.844C728.156 328.125 729.281 326.938 730.875 326.938C732.469 326.938 733.594 328.125 733.594 329.844V357.812C733.594 359.375 732.594 360.562 731.031 360.562C729.469 360.562 728.438 359.375 728.438 357.812V354.719H728.312C726.375 358.469 723 360.562 718 360.562ZM750.125 360.562C743.656 360.562 739.312 356.656 739.312 350.812C739.312 345.25 743.594 341.75 751.094 341.312L760.438 340.781V338.062C760.438 334.094 757.812 331.719 753.312 331.719C749.781 331.719 747.375 333 745.562 336.219C745.062 337.125 744.344 337.531 743.312 337.531C741.906 337.531 740.906 336.562 740.906 335.094C740.906 334.406 741.125 333.625 741.562 332.844C743.406 329.281 748.156 326.938 753.438 326.938C761.062 326.938 765.875 331.062 765.875 337.531V357.812C765.875 359.438 764.812 360.562 763.312 360.562C761.781 360.562 760.719 359.438 760.719 357.812V354.406H760.594C758.656 358.125 754.5 360.562 750.125 360.562ZM751.344 355.938C756.469 355.938 760.438 352.344 760.438 347.656V345L751.719 345.531C747.344 345.812 744.844 347.75 744.844 350.812C744.844 353.906 747.438 355.938 751.344 355.938ZM775.5 360.562C773.906 360.562 772.781 359.375 772.781 357.656V329.688C772.781 328.062 773.844 326.938 775.344 326.938C776.844 326.938 777.906 328.062 777.906 329.688V332.812H778.031C778.969 329.438 782.156 326.938 785.406 326.938C786.594 326.938 787.438 327.219 787.969 327.719C788.438 328.156 788.656 328.781 788.656 329.531C788.656 330.375 788.375 331 787.812 331.438C787.25 331.906 786.406 332.125 785.219 332.125C780.312 332.125 778.219 335.656 778.219 339.812V357.656C778.219 359.375 777.094 360.562 775.5 360.562ZM795.719 372.156C793.094 372.156 791.625 371.188 791.625 369.469C791.625 368.281 792.438 367.469 793.812 367.469C794.594 367.469 794.812 367.5 795.656 367.5C797.719 367.5 799.688 366.25 800.969 362.312L801.719 360.031L790.531 330.875C790.344 330.344 790.25 329.844 790.25 329.438C790.25 327.938 791.406 326.938 792.969 326.938C794.25 326.938 795.062 327.5 795.562 328.938L804.531 354.562H804.625L813.625 328.938C814.125 327.5 814.844 326.938 816.188 326.938C817.75 326.938 818.844 327.969 818.844 329.438C818.844 329.844 818.75 330.344 818.562 330.875L806.562 362.281C803.75 369.75 801.094 372.156 795.719 372.156ZM851.094 360.562C849.5 360.562 848.375 359.375 848.375 357.656V321.062H848.25L839.812 326.969C839.188 327.406 838.594 327.625 837.906 327.625C836.594 327.625 835.688 326.688 835.688 325.312C835.688 324.312 836.062 323.656 837.25 322.812L846.906 315.906C848.656 314.656 849.406 314.344 850.688 314.344C852.625 314.344 853.812 315.531 853.812 317.5V357.656C853.812 359.375 852.688 360.562 851.094 360.562ZM881.594 360.781C874.844 360.781 869.469 357.125 866.688 350.625C865.188 347.156 864.469 343.094 864.469 338.219C864.469 323.031 870.938 314.125 881.969 314.125C887.75 314.125 892.781 316.812 895.312 321.219C895.875 322.188 896.125 322.969 896.125 323.875C896.125 325.281 895.031 326.281 893.531 326.281C892.406 326.281 891.625 325.688 890.625 324.094C888.469 320.688 885.688 319.094 881.906 319.094C874.469 319.094 870.188 325.625 869.906 337.375V337.781H870C871.844 333.719 876.469 330.469 882.594 330.469C891.188 330.469 897.562 336.812 897.562 345.375C897.562 354.281 890.844 360.781 881.594 360.781ZM881.531 355.781C887.281 355.781 891.844 351.25 891.844 345.562C891.844 339.656 887.594 335.406 881.625 335.406C875.656 335.406 871.25 339.656 871.25 345.406C871.25 351.188 875.75 355.781 881.531 355.781Z" fill="white"/>
<path d="M221.241 129.576C229.781 129.576 236.898 135.565 236.898 149.154V149.208C236.898 162.018 230.963 169.671 221.08 169.671C213.91 169.671 208.539 165.536 207.33 159.681L207.276 159.386H214.151L214.232 159.627C215.279 162.286 217.643 164.005 221.107 164.005C227.337 164.005 229.942 158.043 230.211 150.711C230.238 150.309 230.265 149.906 230.265 149.476H230.104C228.573 153.021 224.706 155.707 219.469 155.707C212.003 155.707 206.739 150.335 206.739 143.058V143.004C206.739 135.189 212.889 129.576 221.241 129.576ZM221.241 150.362C225.672 150.362 229.056 147.247 229.056 142.923V142.896C229.056 138.6 225.672 135.243 221.322 135.243C217.025 135.243 213.561 138.573 213.561 142.762V142.816C213.561 147.22 216.837 150.362 221.241 150.362ZM245.545 143.648C243.37 143.648 241.651 141.93 241.651 139.754C241.651 137.579 243.37 135.887 245.545 135.887C247.721 135.887 249.413 137.579 249.413 139.754C249.413 141.93 247.721 143.648 245.545 143.648ZM245.545 163.36C243.37 163.36 241.651 161.642 241.651 159.466C241.651 157.291 243.37 155.599 245.545 155.599C247.721 155.599 249.413 157.291 249.413 159.466C249.413 161.642 247.721 163.36 245.545 163.36ZM273.233 169V161.561H253.897V155.653L269.984 130.248H279.84V155.868H285.104V161.561H279.84V169H273.233ZM260.128 156.029H273.341V135.484H273.18L260.128 155.841V156.029ZM299.149 169V136.854H298.988L288.971 143.729V137.364L299.095 130.248H305.943V169H299.149Z" fill="white"/>
<g opacity="0.9">
<rect x="892" y="150" width="10" height="12" rx="1" fill="white"/>
<rect x="906" y="144" width="10" height="18" rx="1" fill="white"/>
<rect x="921" y="137" width="10" height="25" rx="1" fill="white"/>
<rect x="935" y="129" width="10" height="33" rx="1" fill="white"/>
</g>
<g opacity="0.9">
<path d="M1024.15 137.632C1017.62 131.066 1008.59 127 998.603 127C988.586 127 979.526 131.09 973 137.692L978.657 143.349C983.735 138.195 990.796 135 998.603 135C1006.38 135 1013.42 138.17 1018.49 143.289L1024.15 137.632Z" fill="white"/>
<path d="M1014.95 146.825C1010.79 142.611 1005 140 998.603 140C992.176 140 986.366 142.635 982.192 146.884L987.85 152.542C990.575 149.74 994.386 148 998.603 148C1002.79 148 1006.58 149.715 1009.3 152.482L1014.95 146.825Z" fill="white"/>
<path d="M1005.76 156.018C1003.95 154.156 1001.41 153 998.603 153C995.766 153 993.206 154.181 991.386 156.078L998.543 163.235L1005.76 156.018Z" fill="white"/>
</g>
<rect opacity="0.6" x="1053.5" y="129.5" width="67" height="32" rx="6.5" stroke="white" stroke-width="3"/>
<rect opacity="0.9" x="1057" y="133" width="60" height="25" rx="4" fill="white"/>
<path opacity="0.6" d="M1124 141C1126.21 141 1128 142.791 1128 145V146C1128 148.209 1126.21 150 1124 150V141Z" fill="white"/>
<rect opacity="0.6" x="919" y="184" width="163" height="7" rx="3.5" fill="white"/>
<rect x="455" y="95" width="370" height="108" rx="54" fill="black"/>
<g opacity="0.75">
<rect x="726" y="124" width="50" height="50" rx="25" fill="#121212"/>
<rect x="726" y="124" width="50" height="50" rx="25" stroke="#0E0E0E" stroke-width="2"/>
<g filter="url(#filter2_f_901_1510)">
<path d="M745.429 137.857C736.981 140.334 734.166 154.572 745.429 160.143C742.613 152.715 742.613 145.905 745.429 137.857Z" fill="#50A99A"/>
</g>
<g filter="url(#filter3_f_901_1510)">
<path d="M743.572 143C739.348 144.333 737.94 152 743.572 155C742.164 151 742.164 147.333 743.572 143Z" fill="#50A99A"/>
</g>
<g opacity="0.4" filter="url(#filter4_f_901_1510)">
<path d="M745.309 141.066C741.69 141.611 739.045 151.627 743.417 154.286C741.869 150.715 742.643 143.572 745.309 141.066Z" fill="#D0FFF7"/>
</g>
<g filter="url(#filter5_f_901_1510)">
<path d="M756.571 137.857C765.019 140.334 767.834 154.572 756.571 160.143C759.387 152.715 759.387 145.905 756.571 137.857Z" fill="#3E518C"/>
</g>
<g filter="url(#filter6_f_901_1510)">
<path d="M758.428 143C762.652 144.333 764.06 152 758.428 155C759.836 151 759.836 147.333 758.428 143Z" fill="#26408D"/>
</g>
<g opacity="0.5" filter="url(#filter7_f_901_1510)">
<path d="M756.691 141.066C760.31 141.611 762.955 151.627 758.583 154.286C760.131 150.715 759.357 143.572 756.691 141.066Z" fill="#0D308C"/>
</g>
</g>
<g opacity="0.4">
<rect width="72" height="72" rx="36" transform="matrix(-1 0 0 1 545 113)" fill="#141414"/>
<rect width="46.8" height="46.8" rx="23.4" transform="matrix(-1 0 0 1 532.4 125.6)" fill="black"/>
<g filter="url(#filter8_f_901_1510)">
<path d="M516.021 134.96C526.665 138.08 530.212 156.02 516.021 163.04C519.569 153.68 519.569 145.1 516.021 134.96Z" fill="#50A99A"/>
</g>
<g filter="url(#filter9_f_901_1510)">
<path d="M518.361 141.44C523.683 143.12 525.457 152.78 518.361 156.56C520.135 151.52 520.135 146.9 518.361 141.44Z" fill="#50A99A"/>
</g>
<g opacity="0.5" filter="url(#filter10_f_901_1510)">
<path d="M516.171 139.002C520.732 139.689 524.065 152.309 518.556 155.659C520.506 151.159 519.531 142.159 516.171 139.002Z" fill="#D0FFF7"/>
</g>
<g filter="url(#filter11_f_901_1510)">
<path d="M501.979 134.96C491.336 138.08 487.788 156.02 501.979 163.04C498.431 153.68 498.431 145.1 501.979 134.96Z" fill="#3E518C"/>
</g>
<g filter="url(#filter12_f_901_1510)">
<path d="M499.639 141.44C494.317 143.12 492.543 152.78 499.639 156.56C497.865 151.52 497.865 146.9 499.639 141.44Z" fill="#26408D"/>
</g>
<g opacity="0.5" filter="url(#filter13_f_901_1510)">
<path d="M501.829 139.002C497.268 139.689 493.936 152.309 499.444 155.659C497.494 151.159 498.469 142.159 501.829 139.002Z" fill="#0D308C"/>
</g>
</g>
<g opacity="0.4">
<g style="mix-blend-mode:screen" opacity="0.75">
<rect y="2358" width="18" height="16" fill="#7C7C7C"/>
</g>
<g style="mix-blend-mode:screen" opacity="0.75">
<rect x="263" y="2622" width="16" height="18" fill="#7C7C7C"/>
</g>
<g style="mix-blend-mode:screen" opacity="0.75">
<rect x="1262" y="267" width="18" height="16" fill="#7C7C7C"/>
</g>
<g style="mix-blend-mode:screen" opacity="0.75">
<rect y="267" width="18" height="16" fill="#7C7C7C"/>
</g>
<g style="mix-blend-mode:screen" opacity="0.75">
<rect x="1019" width="16" height="18" fill="#7C7C7C"/>
</g>
<g style="mix-blend-mode:screen" opacity="0.75">
<rect x="1262" y="2357" width="18" height="16" fill="#7C7C7C"/>
</g>
</g>
</g>
<defs>
<filter id="filter0_f_901_1510" x="-0.5" y="0.5" width="1281" height="2642" filterUnits="userSpaceOnUse" color-interpolation-filters="sRGB">
<feFlood flood-opacity="0" result="BackgroundImageFix"/>
<feBlend mode="normal" in="SourceGraphic" in2="BackgroundImageFix" result="shape"/>
<feGaussianBlur stdDeviation="1.5" result="effect1_foregroundBlur_901_1510"/>
</filter>
<filter id="filter1_f_901_1510" x="19" y="19" width="1242" height="2604" filterUnits="userSpaceOnUse" color-interpolation-filters="sRGB">
<feFlood flood-opacity="0" result="BackgroundImageFix"/>
<feBlend mode="normal" in="SourceGraphic" in2="BackgroundImageFix" result="shape"/>
<feGaussianBlur stdDeviation="1" result="effect1_foregroundBlur_901_1510"/>
</filter>
<filter id="filter2_f_901_1510" x="732.429" y="132.286" width="18.5714" height="33.429" filterUnits="userSpaceOnUse" color-interpolation-filters="sRGB">
<feFlood flood-opacity="0" result="BackgroundImageFix"/>
<feBlend mode="normal" in="SourceGraphic" in2="BackgroundImageFix" result="shape"/>
<feGaussianBlur stdDeviation="2.78571" result="effect1_foregroundBlur_901_1510"/>
</filter>
<filter id="filter3_f_901_1510" x="734.286" y="137.429" width="14.8572" height="23.1429" filterUnits="userSpaceOnUse" color-interpolation-filters="sRGB">
<feFlood flood-opacity="0" result="BackgroundImageFix"/>
<feBlend mode="normal" in="SourceGraphic" in2="BackgroundImageFix" result="shape"/>
<feGaussianBlur stdDeviation="2.78571" result="effect1_foregroundBlur_901_1510"/>
</filter>
<filter id="filter4_f_901_1510" x="737.425" y="137.351" width="11.5984" height="20.6493" filterUnits="userSpaceOnUse" color-interpolation-filters="sRGB">
<feFlood flood-opacity="0" result="BackgroundImageFix"/>
<feBlend mode="normal" in="SourceGraphic" in2="BackgroundImageFix" result="shape"/>
<feGaussianBlur stdDeviation="1.85714" result="effect1_foregroundBlur_901_1510"/>
</filter>
<filter id="filter5_f_901_1510" x="751" y="132.286" width="18.5714" height="33.429" filterUnits="userSpaceOnUse" color-interpolation-filters="sRGB">
<feFlood flood-opacity="0" result="BackgroundImageFix"/>
<feBlend mode="normal" in="SourceGraphic" in2="BackgroundImageFix" result="shape"/>
<feGaussianBlur stdDeviation="2.78571" result="effect1_foregroundBlur_901_1510"/>
</filter>
<filter id="filter6_f_901_1510" x="752.857" y="137.429" width="14.8572" height="23.1429" filterUnits="userSpaceOnUse" color-interpolation-filters="sRGB">
<feFlood flood-opacity="0" result="BackgroundImageFix"/>
<feBlend mode="normal" in="SourceGraphic" in2="BackgroundImageFix" result="shape"/>
<feGaussianBlur stdDeviation="2.78571" result="effect1_foregroundBlur_901_1510"/>
</filter>
<filter id="filter7_f_901_1510" x="752.976" y="137.351" width="11.5984" height="20.6493" filterUnits="userSpaceOnUse" color-interpolation-filters="sRGB">
<feFlood flood-opacity="0" result="BackgroundImageFix"/>
<feBlend mode="normal" in="SourceGraphic" in2="BackgroundImageFix" result="shape"/>
<feGaussianBlur stdDeviation="1.85714" result="effect1_foregroundBlur_901_1510"/>
</filter>
<filter id="filter8_f_901_1510" x="509.001" y="127.94" width="23.4" height="42.1201" filterUnits="userSpaceOnUse" color-interpolation-filters="sRGB">
<feFlood flood-opacity="0" result="BackgroundImageFix"/>
<feBlend mode="normal" in="SourceGraphic" in2="BackgroundImageFix" result="shape"/>
<feGaussianBlur stdDeviation="3.51" result="effect1_foregroundBlur_901_1510"/>
</filter>
<filter id="filter9_f_901_1510" x="511.341" y="134.42" width="18.72" height="29.1601" filterUnits="userSpaceOnUse" color-interpolation-filters="sRGB">
<feFlood flood-opacity="0" result="BackgroundImageFix"/>
<feBlend mode="normal" in="SourceGraphic" in2="BackgroundImageFix" result="shape"/>
<feGaussianBlur stdDeviation="3.51" result="effect1_foregroundBlur_901_1510"/>
</filter>
<filter id="filter10_f_901_1510" x="513.831" y="136.662" width="9.93391" height="21.3372" filterUnits="userSpaceOnUse" color-interpolation-filters="sRGB">
<feFlood flood-opacity="0" result="BackgroundImageFix"/>
<feBlend mode="normal" in="SourceGraphic" in2="BackgroundImageFix" result="shape"/>
<feGaussianBlur stdDeviation="1.17" result="effect1_foregroundBlur_901_1510"/>
</filter>
<filter id="filter11_f_901_1510" x="485.599" y="127.94" width="23.4" height="42.1201" filterUnits="userSpaceOnUse" color-interpolation-filters="sRGB">
<feFlood flood-opacity="0" result="BackgroundImageFix"/>
<feBlend mode="normal" in="SourceGraphic" in2="BackgroundImageFix" result="shape"/>
<feGaussianBlur stdDeviation="3.51" result="effect1_foregroundBlur_901_1510"/>
</filter>
<filter id="filter12_f_901_1510" x="487.939" y="134.42" width="18.72" height="29.1601" filterUnits="userSpaceOnUse" color-interpolation-filters="sRGB">
<feFlood flood-opacity="0" result="BackgroundImageFix"/>
<feBlend mode="normal" in="SourceGraphic" in2="BackgroundImageFix" result="shape"/>
<feGaussianBlur stdDeviation="3.51" result="effect1_foregroundBlur_901_1510"/>
</filter>
<filter id="filter13_f_901_1510" x="494.235" y="136.662" width="9.93391" height="21.3372" filterUnits="userSpaceOnUse" color-interpolation-filters="sRGB">
<feFlood flood-opacity="0" result="BackgroundImageFix"/>
<feBlend mode="normal" in="SourceGraphic" in2="BackgroundImageFix" result="shape"/>
<feGaussianBlur stdDeviation="1.17" result="effect1_foregroundBlur_901_1510"/>
</filter>
<clipPath id="clip0_901_1510">
<rect width="1280" height="2642" rx="210" fill="white"/>
</clipPath>
</defs>
</svg>
